<svg width="180" height="100" viewBox="0 0 180 100" fill="none" xmlns="http://www.w3.org/2000/svg">
<path d="M135.086 69.8323C131.647 78.0278 125.563 84.9868 120.812 92.4982C117.373 97.9355 113.138 101.113 104.84 99.0801C95.1345 96.7025 87.96 92.7583 76.709 91.5074C66.675 90.3918 55.4293 93.0335 47.168 87.2303C41.3825 83.1661 40.228 76.2862 44.859 66.3329C52.1583 50.645 59.3518 34.5182 66.4395 17.9527C73.5273 1.38707 85.7985 -3.71425 103.253 2.64869C111.271 5.57138 116.207 10.4194 120.586 15.9749C131.343 29.622 141.261 46.4002 137.196 63.2947C136.642 65.5972 135.942 67.7932 135.086 69.8323Z" fill="#EEEEEE"/>
<path fill-rule="evenodd" clip-rule="evenodd" d="M53.5596 24.0909L90.5595 9L127.56 24.0909V46.7272C127.56 67.6659 111.772 87.2463 90.5595 92C69.3463 87.2463 53.5596 67.6659 53.5596 46.7272V24.0909ZM119.932 28.6277L90.5551 15.5649L61.1782 28.6277V47.8037C61.1782 64.5111 72.6875 80.7108 89.2491 84.7571L90.5551 85.0759L91.8606 84.7571C108.422 80.7108 119.932 64.5111 119.932 47.8037V28.6277ZM71.4488 47.8037V34.642L90.5551 26.1462L109.661 34.642V47.8037C109.661 60.4932 101.187 71.8596 90.5551 75.1634C79.9232 71.8596 71.4488 60.4932 71.4488 47.8037Z" fill="#CC3F29"/>
<line x1="119.074" y1="91.1425" x2="124.074" y2="94.1425" stroke="#A3AEC1" stroke-width="2"/>
<line x1="46.1124" y1="50.1056" x2="50.1124" y2="48.1056" stroke="#A3AEC1" stroke-width="2"/>
</svg>
