<svg width="180" height="100" viewBox="0 0 180 100" fill="none" xmlns="http://www.w3.org/2000/svg">
<path d="M139.101 60.8333C142.115 69.2271 137.127 76.6667 130.415 82.5C123.655 90.1309 113.205 86.6596 107.91 90C102.614 93.3404 98.1444 96.0222 91.5454 97.8209C84.9464 99.6195 77.4106 100.305 68.9378 99.8765C60.465 99.4482 53.7031 95.6368 48.652 88.4421C43.6009 81.2475 40.7495 73.3677 40.0978 64.8026C39.446 56.2376 42.053 48.9573 47.9188 42.9618C53.7846 36.9663 57.5321 30.2427 59.1615 22.7911C60.7909 15.3395 64.7829 9.51531 71.1374 5.31845C77.492 1.12158 84.4169 -0.591431 91.912 0.179423C99.4072 0.950276 107.025 2.27786 114.764 4.16217C122.504 6.04647 126.251 11.6566 126.007 20.9925C125.762 30.3284 126.862 37.8228 129.306 43.4757C131.75 49.1286 136.087 52.4396 139.101 60.8333Z" fill="#EEEEEE"/>
<path fill-rule="evenodd" clip-rule="evenodd" d="M58.6492 17.0009H102.194C105.241 17.019 107.701 19.3786 107.701 22.2831V53.5169C107.701 56.4214 105.241 58.781 102.194 58.799H77.8225L69.148 66.9684C68.8532 67.2101 68.4685 67.3284 68.081 67.2965C67.8988 67.3278 67.7123 67.3278 67.5302 67.2965C66.9985 67.0695 66.6505 66.572 66.6352 66.0169V60.0129C66.6354 59.3551 66.0859 58.8168 65.396 58.799H58.5115C55.4642 58.781 53.0039 56.4214 53.0039 53.5169V22.2831C53.0039 20.865 53.6017 19.5063 54.6634 18.5128C55.7253 17.5193 57.1615 16.9745 58.6492 17.0009ZM80.3526 49.3528C81.1167 49.3528 81.7361 48.7829 81.7361 48.08C81.7361 47.377 81.1167 46.8072 80.3526 46.8072C79.5885 46.8072 78.9691 47.377 78.9691 48.08C78.9691 48.7829 79.5885 49.3528 80.3526 49.3528ZM83.834 32.7067C83.1511 32.7136 82.5683 32.2231 82.4708 31.5592C82.4131 30.701 82.0049 29.9021 81.3387 29.3439C80.6724 28.7857 79.8048 28.5156 78.9328 28.5948C78.5003 28.5911 78.071 28.6668 77.6668 28.8179C77.2314 28.9594 76.8249 29.1751 76.4659 29.4555C76.1178 29.7108 75.8299 30.037 75.622 30.4117C75.3921 30.7874 75.2688 31.2166 75.265 31.6549C75.2209 32.8967 75.7888 34.0832 76.7905 34.8424L78.1862 35.8943L79.4521 36.8505L79.6469 37.0418C80.6391 38.2954 81.1452 39.8544 81.075 41.4406V42.2694C81.0838 42.6299 80.944 42.9787 80.6874 43.2366C80.4308 43.4947 80.079 43.64 79.7118 43.64C79.3445 43.64 78.9928 43.4947 78.7361 43.2366C78.4795 42.9787 78.3397 42.6299 78.3485 42.2694V41.5362C78.3573 40.2404 77.788 39.0058 76.7905 38.1574L75.3623 36.978L73.9341 35.8943L73.7394 35.7349C72.7786 34.6255 72.2699 33.2062 72.3112 31.7505C72.3043 30.9491 72.5053 30.1593 72.8955 29.4555C73.3276 28.699 73.9 28.0287 74.5833 27.4792C75.1742 26.9918 75.8432 26.604 76.5633 26.3317C77.3198 26.0458 78.1222 25.8947 78.9328 25.8854C80.7025 25.8107 82.4147 26.5113 83.6068 27.7979C84.4384 28.7585 84.9782 29.9293 85.1648 31.1767C85.2209 31.558 85.107 31.9447 84.8522 32.2376C84.5973 32.5306 84.2264 32.7015 83.834 32.7067ZM118.439 37.7201C123.236 37.804 127.06 41.3923 127.004 45.7565V74.9574C127.06 79.3215 123.236 82.9098 118.439 82.9938H114.123V86.5825C114.169 87.7396 113.696 88.8639 112.811 89.697C111.928 90.53 110.709 91.0007 109.436 90.9995C108.164 91.0178 106.941 90.5505 106.065 89.7112L98.7477 82.9938H74.4034C69.6199 82.8932 65.816 79.3098 65.8727 74.9574L65.866 68.5108C66.1014 68.7512 66.4295 68.9513 66.8848 69.1212C67.3255 69.2764 67.7942 69.3582 68.2677 69.3625C69.0079 69.3666 69.7255 69.1676 70.3275 68.7998L70.3235 74.8653C70.2854 76.9597 72.102 78.6941 74.4034 78.7608H100.569L109.369 86.7359C109.453 86.7797 109.555 86.7797 109.639 86.7359C109.675 86.6681 109.675 86.5889 109.639 86.5212V80.9693C109.621 80.3946 109.857 79.8373 110.294 79.4222C110.731 79.007 111.334 78.7688 111.966 78.7608H118.439C120.682 78.7139 122.498 77.0886 122.587 75.0494V45.8485C122.606 43.7375 120.759 42.0031 118.439 41.9529L110.914 41.9529V37.7171L118.439 37.7201ZM89.8697 71.4526C90.47 70.8962 90.8009 70.1432 90.7883 69.3621C90.8009 68.581 90.47 67.828 89.8697 67.2716C89.2693 66.7153 88.4498 66.402 87.5945 66.4021C85.8046 66.4021 84.3537 67.7274 84.3537 69.3621C84.3537 70.9969 85.8046 72.3221 87.5945 72.3221C88.4498 72.3222 89.2693 72.009 89.8697 71.4526ZM106.968 69.3621C106.956 68.581 107.287 67.828 107.887 67.2716C108.487 66.7153 109.307 66.402 110.162 66.4021C111.952 66.4021 113.403 67.7274 113.403 69.3621C113.403 70.9969 111.952 72.3221 110.162 72.3221C109.307 72.3222 108.487 72.009 107.887 71.4526C107.287 70.8962 106.956 70.1432 106.968 69.3621ZM102.305 69.3621C102.305 67.7274 100.864 66.4021 99.0874 66.4021C97.3104 66.4021 95.87 67.7274 95.87 69.3621C95.87 70.9969 97.3104 72.3221 99.0874 72.3221C100.864 72.3221 102.305 70.9969 102.305 69.3621Z" fill="#004CCA"/>
<line x1="124.404" y1="16.2" x2="128.404" y2="13.2" stroke="#A3AEC1" stroke-width="2"/>
<path d="M60.0036 6.00023L64.6428 8.23343" stroke="#A3AEC1" stroke-width="2"/>
</svg>
